<mxfile host="app.diagrams.net" modified="2024-05-01T14:36:23.562Z" agent="Mozilla/5.0 (Windows NT 10.0; Win64; x64) AppleWebKit/537.36 (KHTML, like Gecko) Chrome/124.0.0.0 Safari/537.36" etag="nubZuMvoSqavbf7XWCIw" version="24.3.1" type="device">
  <diagram id="6a731a19-8d31-9384-78a2-239565b7b9f0" name="Page-1">
    <mxGraphModel dx="1629" dy="835" grid="1" gridSize="10" guides="1" tooltips="1" connect="1" arrows="1" fold="1" page="1" pageScale="1" pageWidth="1169" pageHeight="827" background="none" math="0" shadow="0">
      <root>
        <mxCell id="0" />
        <mxCell id="1" parent="0" />
        <mxCell id="2" value="&lt;b&gt;start&lt;/b&gt;" style="shape=mxgraph.flowchart.terminator;strokeWidth=2;gradientColor=none;gradientDirection=north;fontStyle=0;html=1;rounded=1;" parent="1" vertex="1">
          <mxGeometry x="524" y="70" width="120" height="30" as="geometry" />
        </mxCell>
        <mxCell id="7" style="fontStyle=1;strokeColor=#003366;strokeWidth=1;html=1;rounded=1;" parent="1" source="2" edge="1">
          <mxGeometry relative="1" as="geometry">
            <mxPoint x="584" y="140" as="targetPoint" />
          </mxGeometry>
        </mxCell>
        <mxCell id="8" style="fontStyle=1;strokeColor=#003366;strokeWidth=1;html=1;exitX=0.5;exitY=1;exitDx=0;exitDy=0;rounded=1;" parent="1" source="fDW8ULmgnEg-SLUDbQ2k-57" edge="1">
          <mxGeometry relative="1" as="geometry">
            <mxPoint x="585" y="210" as="sourcePoint" />
            <mxPoint x="585" y="210" as="targetPoint" />
          </mxGeometry>
        </mxCell>
        <mxCell id="45" value="" style="edgeStyle=elbowEdgeStyle;elbow=horizontal;exitX=1;exitY=0.5;exitPerimeter=0;entryX=0.905;entryY=0.5;entryPerimeter=0;fontStyle=1;strokeColor=#003366;strokeWidth=1;html=1;rounded=1;" parent="1" target="34" edge="1">
          <mxGeometry width="100" height="100" as="geometry">
            <mxPoint x="380.5" y="1119.25" as="sourcePoint" />
            <mxPoint x="100" as="targetPoint" />
            <Array as="points">
              <mxPoint x="950" y="1320" />
            </Array>
          </mxGeometry>
        </mxCell>
        <mxCell id="fDW8ULmgnEg-SLUDbQ2k-57" value="&lt;b&gt;home page&lt;/b&gt;" style="rounded=1;whiteSpace=wrap;html=1;" vertex="1" parent="1">
          <mxGeometry x="525.5" y="140" width="120" height="30" as="geometry" />
        </mxCell>
        <mxCell id="fDW8ULmgnEg-SLUDbQ2k-58" value="" style="shape=link;html=1;rounded=1;" edge="1" parent="1">
          <mxGeometry width="100" relative="1" as="geometry">
            <mxPoint x="535.25" y="210" as="sourcePoint" />
            <mxPoint x="635.75" y="210" as="targetPoint" />
          </mxGeometry>
        </mxCell>
        <mxCell id="fDW8ULmgnEg-SLUDbQ2k-96" style="edgeStyle=orthogonalEdgeStyle;rounded=1;orthogonalLoop=1;jettySize=auto;html=1;exitX=0.5;exitY=1;exitDx=0;exitDy=0;entryX=0.5;entryY=0;entryDx=0;entryDy=0;" edge="1" parent="1" source="fDW8ULmgnEg-SLUDbQ2k-59" target="fDW8ULmgnEg-SLUDbQ2k-95">
          <mxGeometry relative="1" as="geometry" />
        </mxCell>
        <mxCell id="fDW8ULmgnEg-SLUDbQ2k-59" value="&lt;b&gt;view cart&lt;/b&gt;" style="rounded=1;whiteSpace=wrap;html=1;" vertex="1" parent="1">
          <mxGeometry x="680" y="280" width="120" height="30" as="geometry" />
        </mxCell>
        <mxCell id="fDW8ULmgnEg-SLUDbQ2k-60" value="&lt;b&gt;browse categories&lt;/b&gt;" style="rounded=1;whiteSpace=wrap;html=1;" vertex="1" parent="1">
          <mxGeometry x="364" y="280" width="160" height="30" as="geometry" />
        </mxCell>
        <mxCell id="fDW8ULmgnEg-SLUDbQ2k-71" value="" style="edgeStyle=orthogonalEdgeStyle;rounded=1;orthogonalLoop=1;jettySize=auto;html=1;" edge="1" parent="1" source="fDW8ULmgnEg-SLUDbQ2k-62" target="fDW8ULmgnEg-SLUDbQ2k-63">
          <mxGeometry relative="1" as="geometry" />
        </mxCell>
        <mxCell id="fDW8ULmgnEg-SLUDbQ2k-62" value="&lt;b&gt;select category&lt;/b&gt;" style="rounded=1;whiteSpace=wrap;html=1;" vertex="1" parent="1">
          <mxGeometry x="364" y="350" width="160" height="30" as="geometry" />
        </mxCell>
        <mxCell id="fDW8ULmgnEg-SLUDbQ2k-63" value="&lt;b&gt;select items&lt;/b&gt;" style="rounded=1;whiteSpace=wrap;html=1;" vertex="1" parent="1">
          <mxGeometry x="381" y="414" width="126" height="30" as="geometry" />
        </mxCell>
        <mxCell id="fDW8ULmgnEg-SLUDbQ2k-92" style="edgeStyle=orthogonalEdgeStyle;rounded=1;orthogonalLoop=1;jettySize=auto;html=1;entryX=0;entryY=0.5;entryDx=0;entryDy=0;" edge="1" parent="1" source="fDW8ULmgnEg-SLUDbQ2k-64" target="fDW8ULmgnEg-SLUDbQ2k-57">
          <mxGeometry relative="1" as="geometry">
            <Array as="points">
              <mxPoint x="270" y="555" />
              <mxPoint x="270" y="155" />
            </Array>
          </mxGeometry>
        </mxCell>
        <mxCell id="fDW8ULmgnEg-SLUDbQ2k-64" value="&lt;b&gt;view information&lt;/b&gt;" style="rounded=1;whiteSpace=wrap;html=1;" vertex="1" parent="1">
          <mxGeometry x="300" y="540" width="130" height="30" as="geometry" />
        </mxCell>
        <mxCell id="fDW8ULmgnEg-SLUDbQ2k-91" style="edgeStyle=orthogonalEdgeStyle;rounded=1;orthogonalLoop=1;jettySize=auto;html=1;entryX=0;entryY=0.5;entryDx=0;entryDy=0;" edge="1" parent="1" source="fDW8ULmgnEg-SLUDbQ2k-65" target="fDW8ULmgnEg-SLUDbQ2k-59">
          <mxGeometry relative="1" as="geometry">
            <Array as="points">
              <mxPoint x="600" y="555" />
              <mxPoint x="600" y="295" />
            </Array>
          </mxGeometry>
        </mxCell>
        <mxCell id="fDW8ULmgnEg-SLUDbQ2k-65" value="&lt;b&gt;add to cart&lt;/b&gt;" style="rounded=1;whiteSpace=wrap;html=1;" vertex="1" parent="1">
          <mxGeometry x="440" y="540" width="130" height="30" as="geometry" />
        </mxCell>
        <mxCell id="fDW8ULmgnEg-SLUDbQ2k-66" style="fontStyle=1;strokeColor=#003366;strokeWidth=1;html=1;rounded=1;" edge="1" parent="1">
          <mxGeometry relative="1" as="geometry">
            <mxPoint x="443.5" y="310" as="sourcePoint" />
            <mxPoint x="443.5" y="350" as="targetPoint" />
          </mxGeometry>
        </mxCell>
        <mxCell id="fDW8ULmgnEg-SLUDbQ2k-72" value="" style="shape=link;html=1;rounded=1;" edge="1" parent="1">
          <mxGeometry width="100" relative="1" as="geometry">
            <mxPoint x="393.75" y="490" as="sourcePoint" />
            <mxPoint x="494.25" y="490" as="targetPoint" />
          </mxGeometry>
        </mxCell>
        <mxCell id="fDW8ULmgnEg-SLUDbQ2k-77" style="fontStyle=1;strokeColor=#003366;strokeWidth=1;html=1;entryX=0.5;entryY=0;entryDx=0;entryDy=0;rounded=1;" edge="1" parent="1" target="fDW8ULmgnEg-SLUDbQ2k-60">
          <mxGeometry relative="1" as="geometry">
            <mxPoint x="580" y="210" as="sourcePoint" />
            <mxPoint x="595" y="220" as="targetPoint" />
          </mxGeometry>
        </mxCell>
        <mxCell id="fDW8ULmgnEg-SLUDbQ2k-78" style="fontStyle=1;strokeColor=#003366;strokeWidth=1;html=1;entryX=0.5;entryY=0;entryDx=0;entryDy=0;rounded=1;" edge="1" parent="1" target="fDW8ULmgnEg-SLUDbQ2k-59">
          <mxGeometry relative="1" as="geometry">
            <mxPoint x="590" y="210" as="sourcePoint" />
            <mxPoint x="605" y="230" as="targetPoint" />
          </mxGeometry>
        </mxCell>
        <mxCell id="fDW8ULmgnEg-SLUDbQ2k-80" style="edgeStyle=orthogonalEdgeStyle;rounded=1;orthogonalLoop=1;jettySize=auto;html=1;exitX=0.5;exitY=1;exitDx=0;exitDy=0;" edge="1" parent="1" source="fDW8ULmgnEg-SLUDbQ2k-59" target="fDW8ULmgnEg-SLUDbQ2k-59">
          <mxGeometry relative="1" as="geometry" />
        </mxCell>
        <mxCell id="fDW8ULmgnEg-SLUDbQ2k-82" style="fontStyle=1;strokeColor=#003366;strokeWidth=1;html=1;exitX=0.5;exitY=1;exitDx=0;exitDy=0;rounded=1;" edge="1" parent="1" source="fDW8ULmgnEg-SLUDbQ2k-63">
          <mxGeometry relative="1" as="geometry">
            <mxPoint x="426" y="520" as="sourcePoint" />
            <mxPoint x="444" y="490" as="targetPoint" />
          </mxGeometry>
        </mxCell>
        <mxCell id="fDW8ULmgnEg-SLUDbQ2k-90" style="edgeStyle=orthogonalEdgeStyle;rounded=1;orthogonalLoop=1;jettySize=auto;html=1;exitX=0.5;exitY=1;exitDx=0;exitDy=0;" edge="1" parent="1" source="fDW8ULmgnEg-SLUDbQ2k-65" target="fDW8ULmgnEg-SLUDbQ2k-65">
          <mxGeometry relative="1" as="geometry" />
        </mxCell>
        <mxCell id="fDW8ULmgnEg-SLUDbQ2k-93" style="fontStyle=1;strokeColor=#003366;strokeWidth=1;html=1;entryX=0.5;entryY=0;entryDx=0;entryDy=0;rounded=1;" edge="1" parent="1" target="fDW8ULmgnEg-SLUDbQ2k-64">
          <mxGeometry relative="1" as="geometry">
            <mxPoint x="440" y="490" as="sourcePoint" />
            <mxPoint x="304" y="560" as="targetPoint" />
          </mxGeometry>
        </mxCell>
        <mxCell id="fDW8ULmgnEg-SLUDbQ2k-94" style="fontStyle=1;strokeColor=#003366;strokeWidth=1;html=1;entryX=0.641;entryY=-0.022;entryDx=0;entryDy=0;entryPerimeter=0;rounded=1;" edge="1" parent="1" target="fDW8ULmgnEg-SLUDbQ2k-65">
          <mxGeometry relative="1" as="geometry">
            <mxPoint x="450" y="490" as="sourcePoint" />
            <mxPoint x="600" y="560" as="targetPoint" />
          </mxGeometry>
        </mxCell>
        <mxCell id="fDW8ULmgnEg-SLUDbQ2k-98" style="edgeStyle=orthogonalEdgeStyle;rounded=1;orthogonalLoop=1;jettySize=auto;html=1;entryX=0;entryY=0.5;entryDx=0;entryDy=0;" edge="1" parent="1" source="fDW8ULmgnEg-SLUDbQ2k-95" target="fDW8ULmgnEg-SLUDbQ2k-97">
          <mxGeometry relative="1" as="geometry" />
        </mxCell>
        <mxCell id="fDW8ULmgnEg-SLUDbQ2k-103" style="edgeStyle=orthogonalEdgeStyle;rounded=1;orthogonalLoop=1;jettySize=auto;html=1;exitX=0.5;exitY=1;exitDx=0;exitDy=0;entryX=0.5;entryY=0;entryDx=0;entryDy=0;" edge="1" parent="1" source="fDW8ULmgnEg-SLUDbQ2k-95" target="fDW8ULmgnEg-SLUDbQ2k-102">
          <mxGeometry relative="1" as="geometry" />
        </mxCell>
        <mxCell id="fDW8ULmgnEg-SLUDbQ2k-95" value="" style="rhombus;whiteSpace=wrap;html=1;rounded=1;" vertex="1" parent="1">
          <mxGeometry x="700" y="350" width="80" height="50" as="geometry" />
        </mxCell>
        <mxCell id="fDW8ULmgnEg-SLUDbQ2k-101" style="edgeStyle=orthogonalEdgeStyle;rounded=1;orthogonalLoop=1;jettySize=auto;html=1;entryX=1;entryY=0.5;entryDx=0;entryDy=0;" edge="1" parent="1" source="fDW8ULmgnEg-SLUDbQ2k-97" target="fDW8ULmgnEg-SLUDbQ2k-57">
          <mxGeometry relative="1" as="geometry">
            <Array as="points">
              <mxPoint x="980" y="155" />
            </Array>
          </mxGeometry>
        </mxCell>
        <mxCell id="fDW8ULmgnEg-SLUDbQ2k-97" value="&lt;b&gt;continue shopping&lt;/b&gt;" style="rounded=1;whiteSpace=wrap;html=1;" vertex="1" parent="1">
          <mxGeometry x="900" y="360" width="160" height="30" as="geometry" />
        </mxCell>
        <mxCell id="fDW8ULmgnEg-SLUDbQ2k-99" value="[cart empty]" style="text;html=1;align=center;verticalAlign=middle;resizable=0;points=[];autosize=1;strokeColor=none;fillColor=none;rounded=1;" vertex="1" parent="1">
          <mxGeometry x="795" y="348" width="90" height="30" as="geometry" />
        </mxCell>
        <mxCell id="fDW8ULmgnEg-SLUDbQ2k-100" value="[items == 0]" style="text;html=1;align=center;verticalAlign=middle;resizable=0;points=[];autosize=1;strokeColor=none;fillColor=none;rounded=1;" vertex="1" parent="1">
          <mxGeometry x="795" y="370" width="90" height="30" as="geometry" />
        </mxCell>
        <mxCell id="fDW8ULmgnEg-SLUDbQ2k-109" style="edgeStyle=orthogonalEdgeStyle;rounded=1;orthogonalLoop=1;jettySize=auto;html=1;exitX=0.5;exitY=1;exitDx=0;exitDy=0;entryX=0.5;entryY=0;entryDx=0;entryDy=0;" edge="1" parent="1" source="fDW8ULmgnEg-SLUDbQ2k-102" target="fDW8ULmgnEg-SLUDbQ2k-105">
          <mxGeometry relative="1" as="geometry" />
        </mxCell>
        <mxCell id="fDW8ULmgnEg-SLUDbQ2k-102" value="&lt;b&gt;checkout&lt;/b&gt;" style="rounded=1;whiteSpace=wrap;html=1;" vertex="1" parent="1">
          <mxGeometry x="680" y="444" width="120" height="30" as="geometry" />
        </mxCell>
        <mxCell id="fDW8ULmgnEg-SLUDbQ2k-104" value="[item &amp;gt;=0]" style="text;html=1;align=center;verticalAlign=middle;resizable=0;points=[];autosize=1;strokeColor=none;fillColor=none;rounded=1;" vertex="1" parent="1">
          <mxGeometry x="730" y="408" width="80" height="30" as="geometry" />
        </mxCell>
        <mxCell id="fDW8ULmgnEg-SLUDbQ2k-108" style="edgeStyle=orthogonalEdgeStyle;rounded=1;orthogonalLoop=1;jettySize=auto;html=1;" edge="1" parent="1" source="fDW8ULmgnEg-SLUDbQ2k-105" target="fDW8ULmgnEg-SLUDbQ2k-107">
          <mxGeometry relative="1" as="geometry" />
        </mxCell>
        <mxCell id="fDW8ULmgnEg-SLUDbQ2k-105" value="&lt;b&gt;login&lt;/b&gt;" style="rounded=1;whiteSpace=wrap;html=1;" vertex="1" parent="1">
          <mxGeometry x="680" y="510" width="120" height="30" as="geometry" />
        </mxCell>
        <mxCell id="fDW8ULmgnEg-SLUDbQ2k-110" style="edgeStyle=orthogonalEdgeStyle;rounded=1;orthogonalLoop=1;jettySize=auto;html=1;entryX=1;entryY=0.5;entryDx=0;entryDy=0;" edge="1" parent="1" source="fDW8ULmgnEg-SLUDbQ2k-107" target="fDW8ULmgnEg-SLUDbQ2k-105">
          <mxGeometry relative="1" as="geometry">
            <Array as="points">
              <mxPoint x="830" y="605" />
              <mxPoint x="830" y="525" />
            </Array>
          </mxGeometry>
        </mxCell>
        <mxCell id="fDW8ULmgnEg-SLUDbQ2k-114" style="edgeStyle=orthogonalEdgeStyle;rounded=1;orthogonalLoop=1;jettySize=auto;html=1;exitX=0.5;exitY=1;exitDx=0;exitDy=0;entryX=0.5;entryY=0;entryDx=0;entryDy=0;" edge="1" parent="1" source="fDW8ULmgnEg-SLUDbQ2k-107" target="fDW8ULmgnEg-SLUDbQ2k-113">
          <mxGeometry relative="1" as="geometry" />
        </mxCell>
        <mxCell id="fDW8ULmgnEg-SLUDbQ2k-107" value="" style="rhombus;whiteSpace=wrap;html=1;rounded=1;" vertex="1" parent="1">
          <mxGeometry x="700" y="580" width="80" height="50" as="geometry" />
        </mxCell>
        <mxCell id="fDW8ULmgnEg-SLUDbQ2k-111" value="[Invalid Username]" style="text;html=1;align=center;verticalAlign=middle;resizable=0;points=[];autosize=1;strokeColor=none;fillColor=none;rounded=1;" vertex="1" parent="1">
          <mxGeometry x="830" y="540" width="120" height="30" as="geometry" />
        </mxCell>
        <mxCell id="fDW8ULmgnEg-SLUDbQ2k-112" value="[Invalid Password]" style="text;html=1;align=center;verticalAlign=middle;resizable=0;points=[];autosize=1;strokeColor=none;fillColor=none;rounded=1;" vertex="1" parent="1">
          <mxGeometry x="830" y="560" width="120" height="30" as="geometry" />
        </mxCell>
        <mxCell id="fDW8ULmgnEg-SLUDbQ2k-116" value="" style="edgeStyle=orthogonalEdgeStyle;rounded=1;orthogonalLoop=1;jettySize=auto;html=1;" edge="1" parent="1" source="fDW8ULmgnEg-SLUDbQ2k-113" target="fDW8ULmgnEg-SLUDbQ2k-115">
          <mxGeometry relative="1" as="geometry" />
        </mxCell>
        <mxCell id="fDW8ULmgnEg-SLUDbQ2k-113" value="&lt;b&gt;order form&lt;/b&gt;" style="rounded=1;whiteSpace=wrap;html=1;" vertex="1" parent="1">
          <mxGeometry x="680" y="670" width="120" height="30" as="geometry" />
        </mxCell>
        <mxCell id="fDW8ULmgnEg-SLUDbQ2k-119" style="edgeStyle=orthogonalEdgeStyle;rounded=1;orthogonalLoop=1;jettySize=auto;html=1;exitX=1;exitY=0.5;exitDx=0;exitDy=0;entryX=1;entryY=0.5;entryDx=0;entryDy=0;" edge="1" parent="1" source="fDW8ULmgnEg-SLUDbQ2k-115" target="fDW8ULmgnEg-SLUDbQ2k-113">
          <mxGeometry relative="1" as="geometry">
            <Array as="points">
              <mxPoint x="830" y="765" />
              <mxPoint x="830" y="685" />
            </Array>
          </mxGeometry>
        </mxCell>
        <mxCell id="fDW8ULmgnEg-SLUDbQ2k-123" style="edgeStyle=orthogonalEdgeStyle;rounded=1;orthogonalLoop=1;jettySize=auto;html=1;entryX=1;entryY=0.5;entryDx=0;entryDy=0;" edge="1" parent="1" source="fDW8ULmgnEg-SLUDbQ2k-115" target="fDW8ULmgnEg-SLUDbQ2k-122">
          <mxGeometry relative="1" as="geometry" />
        </mxCell>
        <mxCell id="fDW8ULmgnEg-SLUDbQ2k-115" value="" style="rhombus;whiteSpace=wrap;html=1;rounded=1;" vertex="1" parent="1">
          <mxGeometry x="700" y="740" width="80" height="50" as="geometry" />
        </mxCell>
        <mxCell id="fDW8ULmgnEg-SLUDbQ2k-118" value="[Authentication Success]" style="text;html=1;align=center;verticalAlign=middle;resizable=0;points=[];autosize=1;strokeColor=none;fillColor=none;rounded=1;" vertex="1" parent="1">
          <mxGeometry x="735" y="630" width="150" height="30" as="geometry" />
        </mxCell>
        <mxCell id="fDW8ULmgnEg-SLUDbQ2k-120" value="[Inomplete Info]" style="text;html=1;align=center;verticalAlign=middle;resizable=0;points=[];autosize=1;strokeColor=none;fillColor=none;rounded=1;" vertex="1" parent="1">
          <mxGeometry x="820" y="700" width="110" height="30" as="geometry" />
        </mxCell>
        <mxCell id="fDW8ULmgnEg-SLUDbQ2k-121" value="[Invalid Info]" style="text;html=1;align=center;verticalAlign=middle;resizable=0;points=[];autosize=1;strokeColor=none;fillColor=none;rounded=1;" vertex="1" parent="1">
          <mxGeometry x="820" y="720" width="90" height="30" as="geometry" />
        </mxCell>
        <mxCell id="fDW8ULmgnEg-SLUDbQ2k-127" value="" style="edgeStyle=orthogonalEdgeStyle;rounded=1;orthogonalLoop=1;jettySize=auto;html=1;" edge="1" parent="1" source="fDW8ULmgnEg-SLUDbQ2k-122" target="fDW8ULmgnEg-SLUDbQ2k-126">
          <mxGeometry relative="1" as="geometry" />
        </mxCell>
        <mxCell id="fDW8ULmgnEg-SLUDbQ2k-122" value="&lt;b&gt;place order&lt;/b&gt;" style="rounded=1;whiteSpace=wrap;html=1;" vertex="1" parent="1">
          <mxGeometry x="450" y="750" width="120" height="30" as="geometry" />
        </mxCell>
        <mxCell id="fDW8ULmgnEg-SLUDbQ2k-124" value="[Valid Info]" style="text;html=1;align=center;verticalAlign=middle;resizable=0;points=[];autosize=1;strokeColor=none;fillColor=none;rounded=1;" vertex="1" parent="1">
          <mxGeometry x="600" y="740" width="80" height="30" as="geometry" />
        </mxCell>
        <mxCell id="fDW8ULmgnEg-SLUDbQ2k-125" value="[Complete Info]" style="text;html=1;align=center;verticalAlign=middle;resizable=0;points=[];autosize=1;strokeColor=none;fillColor=none;rounded=1;" vertex="1" parent="1">
          <mxGeometry x="590" y="760" width="100" height="30" as="geometry" />
        </mxCell>
        <mxCell id="fDW8ULmgnEg-SLUDbQ2k-126" value="&lt;b&gt;end&lt;/b&gt;" style="shape=mxgraph.flowchart.terminator;strokeWidth=2;gradientColor=none;gradientDirection=north;fontStyle=0;html=1;rounded=1;" vertex="1" parent="1">
          <mxGeometry x="450" y="810" width="120" height="30" as="geometry" />
        </mxCell>
      </root>
    </mxGraphModel>
  </diagram>
</mxfile>
